<svg id="Layer_1" data-name="Layer 1" xmlns="http://www.w3.org/2000/svg" viewBox="0 0 1858.81 569.9"><defs><style>.cls-1{fill:#77777a;}.cls-2{fill:#7c7c7e;}.cls-3{fill:#f49829;}.cls-4{fill:none;stroke:#77777a;stroke-miterlimit:10;stroke-width:0.75px;}</style></defs><title>Untitled-1</title><path class="cls-1" d="M11.13 488.26h5.74v17.45h9.09v5.23h-9.09v41.76h-5.74v-41.76H3.31v-5.23h7.82zM69.64 487.57h5.74v26.58a24.71 24.71 0 0 1 7.65-7.24 17.89 17.89 0 0 1 9.06-2.4 15.2 15.2 0 0 1 8.87 2.67 15.8 15.8 0 0 1 5.71 7.2q1.85 4.49 1.85 14.13v24.19h-5.74v-22.42a60.27 60.27 0 0 0-.61-10.83 12.52 12.52 0 0 0-3.87-7 11.08 11.08 0 0 0-7.35-2.35 13.74 13.74 0 0 0-9.32 3.63 17.1 17.1 0 0 0-5.42 9q-.82 3.45-.82 12.79v17.18h-5.74zM193.4 537.11l4.84 2.67a27.46 27.46 0 0 1-5.5 8 21.28 21.28 0 0 1-7 4.6 23.26 23.26 0 0 1-8.82 1.58q-10.9 0-17.06-7.54a26.85 26.85 0 0 1-.94-33 20.92 20.92 0 0 1 17.68-8.89 21.57 21.57 0 0 1 18.2 9.11q4.84 6.44 4.92 16.07h-40.1q.15 8.17 5 13.42a15.45 15.45 0 0 0 11.85 5.24 18.12 18.12 0 0 0 6.62-1.26 16.89 16.89 0 0 0 5.48-3.3 28.5 28.5 0 0 0 4.83-6.7zm0-12.65a20.56 20.56 0 0 0-3.35-7.73 16 16 0 0 0-5.8-4.66 16.88 16.88 0 0 0-7.59-1.77 15.87 15.87 0 0 0-11.28 4.44q-3.45 3.24-5.21 9.72zM347.99 505.71v47h-5.66v-8.07a24.77 24.77 0 0 1-8.09 6.95 21 21 0 0 1-9.81 2.33 21.24 21.24 0 0 1-16.16-7.24 25 25 0 0 1-6.7-17.6 24.47 24.47 0 0 1 6.76-17.35 21.46 21.46 0 0 1 16.27-7.22 20.26 20.26 0 0 1 9.93 2.45 23.12 23.12 0 0 1 7.8 7.39v-8.63zm-22.92 4.62a16.62 16.62 0 0 0-8.84 2.49 17.84 17.84 0 0 0-6.45 7 19.93 19.93 0 0 0 0 19 18.1 18.1 0 0 0 6.49 7.07 16.41 16.41 0 0 0 8.73 2.52 17.68 17.68 0 0 0 15.41-9.28 20.16 20.16 0 0 0 2.27-9.62 19.29 19.29 0 0 0-5.1-13.64 16.48 16.48 0 0 0-12.51-5.54zM395.23 505.71h5.74v21.95c0 5.35.27 9 .82 11a12.37 12.37 0 0 0 4.7 6.83 13.75 13.75 0 0 0 8.27 2.5 13.51 13.51 0 0 0 8.15-2.43 12.41 12.41 0 0 0 4.61-6.42c.58-1.82.86-5.65.86-11.53v-21.9h5.87v23.09q0 9.7-2.15 14.64a17.08 17.08 0 0 1-6.47 7.7 19.65 19.65 0 0 1-10.84 2.79 19.86 19.86 0 0 1-10.88-2.79 16.88 16.88 0 0 1-6.51-7.76c-1.44-3.34-2.15-8.33-2.15-15zM487.07 488.26h5.74v17.45h9.09v5.23h-9.13v41.76h-5.7v-41.76h-7.82v-5.23h7.82zM566.63 504.51a21.58 21.58 0 0 1 17.08 7.87 26.23 26.23 0 0 1-.35 34.17 22.7 22.7 0 0 1-33.49 0 26.18 26.18 0 0 1-.35-34.14 21.58 21.58 0 0 1 17.11-7.9zm0 5.91a16.17 16.17 0 0 0-12.29 5.58 19.14 19.14 0 0 0-5.14 13.47 19.92 19.92 0 0 0 2.34 9.5 17.14 17.14 0 0 0 6.33 6.81 17.18 17.18 0 0 0 17.52 0 17.06 17.06 0 0 0 6.32-6.81 19.83 19.83 0 0 0 2.35-9.5 19.08 19.08 0 0 0-5.17-13.47 16.19 16.19 0 0 0-12.27-5.59zM635.51 505.71h5.74v8.09a22.79 22.79 0 0 1 6.15-6.57 16.83 16.83 0 0 1 9.15-2.76 14.45 14.45 0 0 1 6.15 1.34 13.13 13.13 0 0 1 4.75 3.56 19.41 19.41 0 0 1 3.2 6.37 21.93 21.93 0 0 1 7.15-8.39 16.26 16.26 0 0 1 9.24-2.88 13.93 13.93 0 0 1 8.15 2.45 14.56 14.56 0 0 1 5.25 6.88q1.72 4.39 1.72 13.21v25.69h-5.86v-25.65q0-7.56-1-10.39a9.33 9.33 0 0 0-3.49-4.56 10.13 10.13 0 0 0-5.9-1.72 12.43 12.43 0 0 0-7.62 2.59 14.86 14.86 0 0 0-5 6.91c-1.06 2.88-1.59 7.7-1.59 14.42v18.4h-5.74v-24.05q0-8.5-1-11.56a9.62 9.62 0 0 0-9.44-6.71 12.35 12.35 0 0 0-7.45 2.52 14.83 14.83 0 0 0-5.12 6.81c-1.11 2.84-1.66 7.22-1.66 13.09v19.9h-5.74zM793.72 505.71v47h-5.65v-8.07a24.77 24.77 0 0 1-8.09 6.95 21 21 0 0 1-9.81 2.33 21.24 21.24 0 0 1-16.16-7.24 25 25 0 0 1-6.7-17.6 24.47 24.47 0 0 1 6.76-17.36 21.46 21.46 0 0 1 16.27-7.22 20.26 20.26 0 0 1 9.93 2.45 23.12 23.12 0 0 1 7.8 7.39v-8.63zm-22.92 4.61a16.62 16.62 0 0 0-8.84 2.49 17.84 17.84 0 0 0-6.45 7 19.93 19.93 0 0 0 0 19 18.1 18.1 0 0 0 6.49 7.07 16.41 16.41 0 0 0 8.73 2.52 17.68 17.68 0 0 0 15.41-9.28 20.16 20.16 0 0 0 2.27-9.62 19.29 19.29 0 0 0-5.1-13.64 16.48 16.48 0 0 0-12.51-5.53zM846.69 488.26h5.74v17.45h9.09v5.23h-9.09v41.76h-5.74v-41.76h-7.82v-5.23h7.82zM907.17 486.36a4.45 4.45 0 0 1 3.35 1.48 5.17 5.17 0 0 1 0 7 4.43 4.43 0 0 1-3.35 1.46 4.35 4.35 0 0 1-3.3-1.46 5.17 5.17 0 0 1 0-7 4.37 4.37 0 0 1 3.3-1.48zm-2.84 19.36h5.74v47h-5.74zM1000.32 515.47l-4.55 3a18.68 18.68 0 0 0-16.07-8.24 18.13 18.13 0 0 0-13.53 5.52 18.55 18.55 0 0 0-5.38 13.42 19.9 19.9 0 0 0 2.49 9.67 17.88 17.88 0 0 0 6.79 7 18.91 18.91 0 0 0 9.67 2.5q9.83 0 16-8.26l4.55 3.15a21.88 21.88 0 0 1-8.58 7.88 26.32 26.32 0 0 1-12.26 2.79 24 24 0 0 1-24.5-24.31 25.58 25.58 0 0 1 3.25-12.68 23.43 23.43 0 0 1 9-9.13 25 25 0 0 1 12.73-3.29 25.88 25.88 0 0 1 8.55 1.43 22.83 22.83 0 0 1 7 3.71 19.78 19.78 0 0 1 4.84 5.84zM1099.47 495.4v-6.23h33v6.23h-13.4v57.3h-6.15v-57.3zM1176.29 489.17h34.54v6.23h-28.52v19.9h28.26v6.21h-28.26v25h28.26v6.21h-34.29zM1256.34 552.7v-63.53h1.31l40.11 48.71v-48.71h5.94v63.53h-1.36l-39.77-48.11v48.11zM1347.22 540.87l5.12-3.23q5.41 10.5 12.5 10.49a11.52 11.52 0 0 0 5.69-1.48 10.29 10.29 0 0 0 4.05-4 10.68 10.68 0 0 0 1.4-5.31 11.19 11.19 0 0 0-2-6.27q-2.83-4.24-10.33-10.2c-5-4-8.14-6.9-9.38-8.68a16.38 16.38 0 0 1-3.18-9.7 15.45 15.45 0 0 1 1.87-7.56 13.79 13.79 0 0 1 5.31-5.38 14.7 14.7 0 0 1 7.44-2 15.23 15.23 0 0 1 8 2.23q3.7 2.22 7.85 8.19l-4.92 3.93q-3.4-4.75-5.81-6.27a9.58 9.58 0 0 0-5.21-1.52 8.1 8.1 0 0 0-6 2.33 7.86 7.86 0 0 0-2.3 5.74 10.21 10.21 0 0 0 .82 4 14.84 14.84 0 0 0 3 4.24c.8.8 3.39 2.93 7.78 6.35q7.84 6.08 10.74 10.84a18.12 18.12 0 0 1 2.91 9.53 16.65 16.65 0 0 1-5 12 16.29 16.29 0 0 1-12.1 5.09 17 17 0 0 1-9.94-3.1c-3.05-1.97-5.79-5.42-8.31-10.26zM1487.54 505.71h5.74v8.63a23.56 23.56 0 0 1 7.81-7.39 20 20 0 0 1 9.87-2.45 21.46 21.46 0 0 1 16.24 7.22 24.51 24.51 0 0 1 6.76 17.35 25 25 0 0 1-6.71 17.6 21.22 21.22 0 0 1-16.14 7.24 20.8 20.8 0 0 1-9.77-2.33 24.81 24.81 0 0 1-8.07-6.95v25.27h-5.74zm22.95 4.61a16.44 16.44 0 0 0-12.53 5.48 19.32 19.32 0 0 0-5.09 13.64 20.16 20.16 0 0 0 2.26 9.62 17 17 0 0 0 6.5 6.78 17.27 17.27 0 0 0 8.94 2.5 16.37 16.37 0 0 0 8.68-2.52 18.06 18.06 0 0 0 6.47-7.07 19.9 19.9 0 0 0 0-19 17.68 17.68 0 0 0-6.44-7 16.56 16.56 0 0 0-8.79-2.42zM1617.3 537.11l4.82 2.67a27.6 27.6 0 0 1-5.48 8 21.4 21.4 0 0 1-7 4.6 23.26 23.26 0 0 1-8.82 1.58q-10.9 0-17.06-7.54a26.83 26.83 0 0 1-.94-33 20.89 20.89 0 0 1 17.67-8.89 21.56 21.56 0 0 1 18.2 9.11q4.85 6.44 4.92 16.07h-40.11q.18 8.17 5 13.42a15.45 15.45 0 0 0 11.85 5.24 18.15 18.15 0 0 0 6.62-1.26 17.07 17.07 0 0 0 5.48-3.3 28.49 28.49 0 0 0 4.85-6.7zm0-12.65a20.57 20.57 0 0 0-3.35-7.73 15.86 15.86 0 0 0-5.81-4.66 16.84 16.84 0 0 0-7.58-1.77 15.9 15.9 0 0 0-11.29 4.44q-3.45 3.24-5.21 9.72zM1669.36 505.71h5.71v8.43a24.37 24.37 0 0 1 7.63-7.24 17.93 17.93 0 0 1 9.09-2.4 15.2 15.2 0 0 1 8.87 2.67 15.83 15.83 0 0 1 5.72 7.22c1.23 3 1.84 7.73 1.84 14.11v24.2h-5.74v-22.42q0-8.12-.63-10.83a12.09 12.09 0 0 0-3.83-7 11.16 11.16 0 0 0-7.37-2.35 13.73 13.73 0 0 0-9.33 3.63 17.22 17.22 0 0 0-5.43 9q-.82 3.5-.82 12.79v17.18h-5.74z"/><path class="cls-2" d="M.34 125.08h25.48v36.4q15.08-20.74 34.73-31.12t43.81-10.37q42.18 0 72.18 30.39t30 73.16q0 43.68-29.73 74.16t-71.74 30.48a96.42 96.42 0 0 1-43.45-9.83q-19.82-9.83-35.82-29.3v106.47H.34zm101.91 19.47q-33.05 0-55.65 23.09T24 225.08q0 22.54 10.08 40.54a73.55 73.55 0 0 0 28.87 28.54 79.87 79.87 0 0 0 39.67 10.54 74.8 74.8 0 0 0 38.58-10.64 78 78 0 0 0 28.78-29.72 80.29 80.29 0 0 0 .09-80 76.73 76.73 0 0 0-67.82-39.82zM451.49 125.08v198h-25.11v-34q-16 19.47-35.95 29.3a97.21 97.21 0 0 1-43.59 9.83q-42 0-71.8-30.48t-29.75-74.16q0-42.76 30-73.16t72.25-30.39q24.38 0 44.13 10.37t34.67 31.12v-36.4zm-101.83 19.47a76.86 76.86 0 0 0-67.9 39.82 80.22 80.22 0 0 0 .1 80 78 78 0 0 0 28.81 29.72 75.26 75.26 0 0 0 38.82 10.64 79.52 79.52 0 0 0 39.58-10.57 73.82 73.82 0 0 0 28.82-28.54q10.09-18 10.09-40.54 0-34.35-22.64-57.44t-55.68-23.09zM517.64 43.55a21.07 21.07 0 0 1 21 21.11 20.93 20.93 0 0 1-41.86 0 20.4 20.4 0 0 1 6.16-14.92 20 20 0 0 1 14.7-6.19zM505 125.08h25.47v198h-25.48zM583.43 125.08h25.48v35.49q15.28-20.38 33.85-30.48a83.17 83.17 0 0 1 40.4-10.1q22.2 0 39.4 11.28a67.25 67.25 0 0 1 25.38 30.39q8.19 19.1 8.19 59.51v101.92h-25.47v-94.46q0-34.21-2.84-45.68-4.43-19.65-17-29.57t-32.75-9.92q-23.12 0-41.41 15.28a71.61 71.61 0 0 0-24.12 37.86q-3.65 14.74-3.64 53.87v72.61h-25.47z"/><path class="cls-3" d="M953.78 125.08h49.5V294.7q0 50.23-20.2 73.89-27.12 32-81.71 32-29.13 0-49-7.28a85.34 85.34 0 0 1-53.69-55.69h54.78a45.22 45.22 0 0 0 18.74 12.65q11.47 4.27 27.12 4.28 20 0 32.21-6.19t17.2-16q5-9.83 5-33.85-13.11 13.1-27.48 18.84t-32.58 5.73q-39.86 0-67.34-28.75t-27.48-72.8q0-47.13 29.12-75.71 26.38-25.84 63-25.84a83.76 83.76 0 0 1 32.3 6.28q15.2 6.28 30.49 20.65zm-51.51 41.31q-23.48 0-38.76 15.74t-15.29 39.58q0 24.75 15.65 40.58t39.31 15.83q23.12 0 38.13-15.47t15-40.58q0-24.75-15.11-40.22t-38.93-15.46zm244.24-46.41a105 105 0 0 1 52.69 14 102.78 102.78 0 0 1 52.32 89.91 104 104 0 0 1-13.92 52.41 100.45 100.45 0 0 1-37.95 38.13 104.8 104.8 0 0 1-53 13.74q-42.59 0-72.7-30.3t-30.12-73.61q0-46.41 34-77.35 29.92-26.92 68.68-26.92zm.82 46.77q-23.15 0-38.56 16.1t-15.4 41.22q0 25.84 15.23 41.86t38.56 16q23.33 0 38.83-16.2t15.49-41.68q0-25.48-15.22-41.4t-38.93-15.85zm144.74-41.67h49.69v20.29q16.89-14.25 30.62-19.82a74 74 0 0 1 28.08-5.57q29.45 0 50 20.57 17.26 17.47 17.26 51.69v130.85h-49.14v-86.71q0-35.45-3.18-47.08t-11.08-17.72q-7.9-6.09-19.51-6.09a36.57 36.57 0 0 0-25.87 10.09q-10.81 10.09-15 27.9-2.19 9.28-2.18 40.17v79.44h-49.69zm422 113.38h-159.54q3.45 21.11 18.47 33.58t38.31 12.47q27.84 0 47.86-19.47l41.9 19.65q-15.66 22.21-37.49 32.85t-51.86 10.65q-46.59 0-75.89-29.39t-29.3-73.61q0-45.32 29.21-75.25t73.25-29.94q46.78 0 76.08 29.94t29.29 79.07zm-49.69-39.13a49.85 49.85 0 0 0-19.31-26.93q-14.5-10.37-33.64-10.37-20.78 0-36.46 11.65-9.84 7.28-18.23 25.66zm89 10.54h5.18l-1.16 11.84 9.81-7 2.63 4.46-11 5 11 4.91-2.63 4.51-9.81-6.94 1.16 11.84h-5.18l1.24-11.84-9.81 6.94-2.63-4.51 11.2-4.91-11.2-5 2.63-4.46 9.81 7z"/><path id="_Path_" data-name="&lt;Path&gt;" class="cls-4" d="M0 447.13h1714.14"/><path id="_Compound_Path_" data-name="&lt;Compound Path&gt;" class="cls-1" d="M771.98 85.32v8.33h6.89a8.66 8.66 0 0 0 4.26-.72 3.72 3.72 0 0 0 1.65-3.47 4 4 0 0 0-1.16-3.15c-.79-.66-2.29-1-4.46-1zm-4.46-4h11.74a15.3 15.3 0 0 1 5.9.82 6.63 6.63 0 0 1 2.91 2.66 8.21 8.21 0 0 1 1.13 4.34 8 8 0 0 1-.8 3.71 8.22 8.22 0 0 1-2.72 2.53 5.43 5.43 0 0 1 2.55 2.17 9.57 9.57 0 0 1 .66 4.19v3.18a6.58 6.58 0 0 0 1 3.76l.45.72h-5a24.15 24.15 0 0 1-.67-4.14l-.22-3.45a6.2 6.2 0 0 0-.61-2.7 2.74 2.74 0 0 0-1.37-1.11 11.14 11.14 0 0 0-3.52-.33h-7v11.73h-4.46zm31.18 14.24a20.89 20.89 0 0 0-2.82-10.53 21 21 0 0 0-18.12-10.6 20.91 20.91 0 0 0-10.55 2.85 20.37 20.37 0 0 0-7.76 7.76 21.32 21.32 0 0 0-2.79 10.6 20.9 20.9 0 0 0 2.79 10.51 20.65 20.65 0 0 0 7.76 7.73 21 21 0 0 0 10.55 2.82 20.29 20.29 0 0 0 10.44-2.9 21 21 0 0 0 7.71-7.71 20.72 20.72 0 0 0 2.8-10.58m3.4 0a24.34 24.34 0 0 1-12.22 21.18 23.76 23.76 0 0 1-12.2 3.3 24 24 0 0 1-12.18-3.27 24.33 24.33 0 0 1-9-8.94 23.78 23.78 0 0 1-3.28-12.14 24.42 24.42 0 0 1 24.43-24.5 24.49 24.49 0 0 1 24.41 24.37"/><path class="cls-3" d="M1786.48 0a72.34 72.34 0 1 0 72.34 72.34A72.34 72.34 0 0 0 1786.48 0zm44.27 82.52h-34.68v36.53h-19.22V82.52h-34.66V62.26h34.66V25.62h19.22v36.64h34.67z"/></svg>