<svg xmlns="http://www.w3.org/2000/svg" viewBox="0 0 165.83 661.62"><defs><style>.cls-1{fill:url(#radial-gradient);}.cls-2{fill:url(#linear-gradient);}.cls-3{fill:url(#linear-gradient-2);}.cls-4{fill:url(#linear-gradient-3);}.cls-5{fill:url(#linear-gradient-4);}.cls-6{stroke:#fff;stroke-miterlimit:10;stroke-width:0.1px;fill:url(#linear-gradient-5);}.cls-7{fill:url(#linear-gradient-6);}.cls-8{fill:url(#linear-gradient-7);}.cls-9{fill:url(#linear-gradient-8);}.cls-10{fill:url(#linear-gradient-9);}.cls-11{fill:#77777a;}.cls-12{fill:#f59a2a;}</style><radialGradient id="radial-gradient" cx="654.16" cy="27.23" r="21.57" gradientTransform="matrix(0 -.97 1 0 85.05 644.56)" gradientUnits="userSpaceOnUse"><stop offset="0" stop-color="#575756"/><stop offset=".49" stop-color="#747473"/><stop offset="1" stop-color="#8e8e8d"/></radialGradient><linearGradient id="linear-gradient" x1="630.66" y1="32.25" x2="630.66" y2="-24.15" gradientTransform="rotate(-90 375.36 267.3)" gradientUnits="userSpaceOnUse"><stop offset=".13" stop-color="#636362"/><stop offset=".77" stop-color="#444443"/><stop offset=".83" stop-color="#4f4f4f"/><stop offset=".95" stop-color="#6e6e6e"/><stop offset="1" stop-color="#7b7b7b"/></linearGradient><linearGradient id="linear-gradient-2" x1="578.36" y1="-41.11" x2="578.36" y2="49.21" gradientTransform="rotate(-90 375.36 267.3)" gradientUnits="userSpaceOnUse"><stop offset="0" stop-color="#f6a73c"/><stop offset=".02" stop-color="#f39832"/><stop offset=".05" stop-color="#ed7116"/><stop offset=".06" stop-color="#ec6d13"/><stop offset=".16" stop-color="#d66310"/><stop offset=".25" stop-color="#c75d0e"/><stop offset=".35" stop-color="#d46c0c"/><stop offset=".51" stop-color="#f28e09"/><stop offset=".67" stop-color="#ef8c09"/><stop offset=".76" stop-color="#e98908"/><stop offset=".84" stop-color="#e78609"/><stop offset=".91" stop-color="#e07b0a"/><stop offset=".98" stop-color="#d66a0e"/><stop offset="1" stop-color="#d1620f"/></linearGradient><linearGradient id="linear-gradient-3" x1="609.69" y1="44.52" x2="609.69" y2="-13.24" gradientTransform="rotate(-90 375.36 267.3)" gradientUnits="userSpaceOnUse"><stop offset="0" stop-color="#fff" stop-opacity="0"/><stop offset=".56" stop-color="#fff" stop-opacity=".2"/><stop offset=".72" stop-color="#fff" stop-opacity=".14"/><stop offset="1" stop-color="#fff" stop-opacity="0"/></linearGradient><linearGradient id="linear-gradient-4" x1="-3269.48" y1="457.76" x2="-3269.48" y2="355.23" gradientTransform="translate(3352.3 -314.29)" gradientUnits="userSpaceOnUse"><stop offset="0" stop-color="#fff"/><stop offset="1" stop-color="#dadada"/></linearGradient><linearGradient id="linear-gradient-5" x1="-3352.25" y1="407.62" x2="-3186.92" y2="407.62" gradientTransform="translate(3352.3 -314.29)" gradientUnits="userSpaceOnUse"><stop offset="0" stop-color="#c6c6c6"/><stop offset=".28" stop-color="#fff"/><stop offset=".64" stop-color="#fff"/><stop offset=".7" stop-color="#fff"/><stop offset=".85" stop-color="#fdfdfd"/><stop offset=".9" stop-color="#f6f6f6"/><stop offset=".94" stop-color="#ebebeb"/><stop offset=".98" stop-color="#dadada"/><stop offset="1" stop-color="#c6c6c6"/></linearGradient><linearGradient id="linear-gradient-6" x1="-317.87" y1="-3283.79" x2="-317.87" y2="-3324.78" gradientTransform="rotate(-90 1872.87 -1544.51)" gradientUnits="userSpaceOnUse"><stop offset="0" stop-color="#ea7305"/><stop offset=".5" stop-color="#f59a2a"/><stop offset="1" stop-color="#ea7305"/></linearGradient><linearGradient id="linear-gradient-7" x1="-128.78" y1="5323.81" x2="-128.78" y2="5219.08" gradientTransform="matrix(0 -1 -1 0 5384.53 328.36)" gradientUnits="userSpaceOnUse"><stop offset="0" stop-color="#dadada"/><stop offset=".5" stop-color="#fff"/><stop offset="1" stop-color="#dadada"/></linearGradient><linearGradient id="linear-gradient-8" x1="2689.09" y1="225.55" x2="2793.94" y2="225.55" gradientTransform="matrix(-1 0 0 1 2854.55 0)" gradientUnits="userSpaceOnUse"><stop offset="0" stop-color="#3b3a39"/><stop offset=".01" stop-color="#4a4948"/><stop offset=".03" stop-color="#70706f"/><stop offset=".06" stop-color="#afaeae"/><stop offset=".09" stop-color="#fff"/><stop offset=".12" stop-color="#fcfcfc"/><stop offset=".14" stop-color="#f2f2f2"/><stop offset=".16" stop-color="#e2e2e2"/><stop offset=".18" stop-color="#cbcaca"/><stop offset=".19" stop-color="#adacac"/><stop offset=".21" stop-color="#888788"/><stop offset=".23" stop-color="#5e5c5d"/><stop offset=".24" stop-color="#353334"/><stop offset=".27" stop-color="#555454"/><stop offset=".31" stop-color="#888788"/><stop offset=".36" stop-color="#b3b2b3"/><stop offset=".41" stop-color="#d4d4d4"/><stop offset=".45" stop-color="#ececec"/><stop offset=".49" stop-color="#fafafa"/><stop offset=".52" stop-color="#fff"/><stop offset=".55" stop-color="#dedede"/><stop offset=".59" stop-color="#adadad"/><stop offset=".62" stop-color="#848484"/><stop offset=".66" stop-color="#656564"/><stop offset=".7" stop-color="#4e4e4d"/><stop offset=".73" stop-color="#414140"/><stop offset=".76" stop-color="#3c3c3b"/><stop offset=".92" stop-color="#fff"/><stop offset="1" stop-color="#3c3c3b"/></linearGradient><linearGradient id="linear-gradient-9" x1="417.26" y1="62.83" x2="417.26" y2="-42.76" gradientTransform="rotate(-90 372.82 269.82)" gradientUnits="userSpaceOnUse"><stop offset=".04" stop-color="#727170"/><stop offset=".05" stop-color="#817f7e"/><stop offset=".06" stop-color="#a8a5a3"/><stop offset=".09" stop-color="#e6e2df"/><stop offset=".09" stop-color="#e7e3e0"/><stop offset=".12" stop-color="#e4e0dd"/><stop offset=".15" stop-color="#dad6d4"/><stop offset=".17" stop-color="#cac6c4"/><stop offset=".19" stop-color="#b2afae"/><stop offset=".21" stop-color="#949191"/><stop offset=".23" stop-color="#706d6e"/><stop offset=".24" stop-color="#636062"/><stop offset=".28" stop-color="#838182"/><stop offset=".33" stop-color="#adabac"/><stop offset=".38" stop-color="#cecdcd"/><stop offset=".44" stop-color="#e5e5e5"/><stop offset=".48" stop-color="#f3f3f3"/><stop offset=".52" stop-color="#f8f8f8"/><stop offset=".57" stop-color="#c8c8c7"/><stop offset=".61" stop-color="#9f9f9f"/><stop offset=".65" stop-color="#80807f"/><stop offset=".69" stop-color="#696968"/><stop offset=".73" stop-color="#5c5c5b"/><stop offset=".76" stop-color="#575756"/><stop offset=".92" stop-color="#dadada"/><stop offset="1" stop-color="#575756"/></linearGradient></defs><title>Asset 1</title><g id="Layer_2" data-name="Layer 2"><g id="Layer_1-2" data-name="Layer 1"><path class="cls-1" d="M140.32 8.32v13.34H83.91V8.32S93.25 0 112.11 0s28.21 8.32 28.21 8.32z"/><path class="cls-2" d="M140.32 8.26v10.83H83.91V8.26s8.44-3.37 28.2-3.37 28.21 3.37 28.21 3.37z"/><path class="cls-3" d="M157.27 33.77v64.29c0 10.29-8.89 18.63-19.85 18.63H86.8c-11 0-19.85-8.34-19.85-18.63V33.77c0-10.29 7.41-21.89 45.16-21.89s45.16 11.6 45.16 21.89z"/><path class="cls-4" d="M126.09 45.65c13.7 3.6 25.87 5.59 26.4-4.77.57-11.11-1.31-18.75-20.79-21.78s-36.88-2.62-36.88 5.49c.01 5.11 14.55 16.66 31.27 21.06z"/><path class="cls-5" d="M165.39 141.24V78.69S148.14 56.45 79.36 45 5.81 49.72 2.54 54.41-.29 64 2.56 69.7c6.5 12.92 46.92 3.41 55.39 45.84 3.73 18.68 3 27.92 3 27.92z"/><path class="cls-6" d="M165.39 143.71V81.16s-17.25-22.24-86-33.72-72.83 2.13-76.82 7-2.81 11.16.75 16.41c0 0 18-8.51 45.34-3.31 65 12.38 64.09 74.81 64.09 74.81"/><path class="cls-7" d="M133.58 635.89v-5.06h-41v5.06s6.88 25.73 20.49 25.73 20.51-25.73 20.51-25.73z"/><path class="cls-8" d="M113.09 643.64c16 0 19.64-4.85 19.64-4.85S145.61 601 156 494.52a2092.39 2092.39 0 0 0 9.3-216.79l-49.73-7.08-54.75 7.08a2092.39 2092.39 0 0 0 9.3 216.79C80.57 601 93.45 638.79 93.45 638.79s3.64 4.85 19.64 4.85z"/><path class="cls-9" d="M60.61 140.59v173.74h104.85V140.59s-3.2-3.82-52.42-3.82-52.43 3.82-52.43 3.82z"/><path class="cls-10" d="M165.83 141.47v171.6H60.23v-171.6s3.23-3.77 52.8-3.77 52.8 3.77 52.8 3.77z"/><path id="_Compound_Path_" data-name="&lt;Compound Path&gt;" class="cls-11" d="M97.64 441.55h.93v-.73a.88.88 0 0 0-.08-.45.42.42 0 0 0-.39-.18.46.46 0 0 0-.35.12.75.75 0 0 0-.11.47zm-.45.47v-1.25a1.55 1.55 0 0 1 .09-.63.72.72 0 0 1 .3-.31 1 1 0 0 1 .49-.12.93.93 0 0 1 .42.09.9.9 0 0 1 .28.29.59.59 0 0 1 .24-.27 1.13 1.13 0 0 1 .47-.07h.36a.77.77 0 0 0 .42-.11h.08v.53a2.84 2.84 0 0 1-.46.07h-.39a.73.73 0 0 0-.3.06.3.3 0 0 0-.12.15 1.13 1.13 0 0 0 0 .37v.75h1.32v.43zm1.6-3.32a2.44 2.44 0 0 0-1.18.3 2.25 2.25 0 0 0-.87.82 2.09 2.09 0 0 0-.32 1.11 2.14 2.14 0 0 0 .32 1.12 2.23 2.23 0 0 0 .87.83 2.49 2.49 0 0 0 1.19.3 2.44 2.44 0 0 0 1.18-.3 2.26 2.26 0 0 0 .87-.83 2.15 2.15 0 0 0 .32-1.12 2.07 2.07 0 0 0-.32-1.11 2.3 2.3 0 0 0-.85-.82 2.42 2.42 0 0 0-1.19-.3m0-.36a2.82 2.82 0 0 1 1.37.35 2.62 2.62 0 0 1 1 1 2.47 2.47 0 0 1 0 2.59 2.66 2.66 0 0 1-1 1 2.78 2.78 0 0 1-1.36.35 2.83 2.83 0 0 1-1.38-.35 2.64 2.64 0 0 1-1-1 2.47 2.47 0 0 1-.36-1.3 2.44 2.44 0 0 1 .36-1.3 2.61 2.61 0 0 1 1-.95 2.79 2.79 0 0 1 1.36-.35"/><path id="_Compound_Path_2" data-name="&lt;Compound Path&gt;" class="cls-11" d="M104.45 508a7 7 0 0 0 2.32 5.31 8.18 8.18 0 0 0 5.78 2.15 8.51 8.51 0 0 0 4.07-1 7.18 7.18 0 0 0 2.87-2.76 7.28 7.28 0 0 0 1.06-3.78 6.86 6.86 0 0 0-1.07-3.68 7.68 7.68 0 0 0-3-2.74 8.43 8.43 0 0 0-8 0 7.54 7.54 0 0 0-3 2.73 7 7 0 0 0-1 3.74m-2 9.72v-2.43h3.66A10 10 0 0 1 103 512a8.44 8.44 0 0 1-1-4.18 9.09 9.09 0 0 1 3.05-6.88 10.39 10.39 0 0 1 7.36-2.86 10.62 10.62 0 0 1 7.46 2.83 9 9 0 0 1 3.06 6.84 8.8 8.8 0 0 1-1 4.14 10.58 10.58 0 0 1-2.95 3.41h10.7v2.43z"/><path id="_Compound_Path_3" data-name="&lt;Compound Path&gt;" class="cls-11" d="M104.45 483.78a7.06 7.06 0 0 0 1 3.75 7.53 7.53 0 0 0 3 2.73 8.42 8.42 0 0 0 8 0 7.64 7.64 0 0 0 3-2.75 6.88 6.88 0 0 0 1.07-3.7 7.27 7.27 0 0 0-1.06-3.78 7.2 7.2 0 0 0-2.87-2.75 8.51 8.51 0 0 0-4.07-1 8.17 8.17 0 0 0-5.78 2.16 7 7 0 0 0-2.32 5.31m-2-9.71h19.98v2.4H119a10.52 10.52 0 0 1 2.95 3.43 8.87 8.87 0 0 1 1 4.16 9 9 0 0 1-3.06 6.85 10.59 10.59 0 0 1-7.46 2.84 10.39 10.39 0 0 1-7.36-2.86A9.12 9.12 0 0 1 102 484a8.53 8.53 0 0 1 1-4.21 9.77 9.77 0 0 1 3.13-3.31h-3.66z"/><path id="_Compound_Path_4" data-name="&lt;Compound Path&gt;" class="cls-11" d="M102.49 468.46V466h19.91v2.43zm-8.2-1.21a1.87 1.87 0 0 1 .62-1.42 2.11 2.11 0 0 1 1.5-.59 2.09 2.09 0 0 1 1.48.59 1.9 1.9 0 0 1 0 2.82 2.09 2.09 0 0 1-1.48.59 2.11 2.11 0 0 1-1.5-.59 1.86 1.86 0 0 1-.62-1.4"/><path id="_Path_" data-name="&lt;Path&gt;" class="cls-11" d="M102.49 460.41V458h3.57a10.38 10.38 0 0 1-3.07-3.23 7.61 7.61 0 0 1-1-3.85 6.43 6.43 0 0 1 1.13-3.76 6.67 6.67 0 0 1 3.06-2.42 17 17 0 0 1 6-.78h10.22v2.43h-9.5a24.69 24.69 0 0 0-4.59.27 5.12 5.12 0 0 0-3 1.62 4.73 4.73 0 0 0-1 3.12 5.81 5.81 0 0 0 1.54 3.95 7.25 7.25 0 0 0 3.81 2.3 28 28 0 0 0 5.41.35h7.3v2.43z"/><path class="cls-12" d="M104.1 399a10.29 10.29 0 0 0-1.37 5.17A10.18 10.18 0 0 0 113 414.24a9.85 9.85 0 0 0 7.22-3 9.68 9.68 0 0 0 3-7.13 10.28 10.28 0 0 0-1.35-5.19 9.85 9.85 0 0 0-3.74-3.72 10.2 10.2 0 0 0-5.14-1.36 10.07 10.07 0 0 0-8.89 5.16zm12.92 1.3a5 5 0 0 1 1.59 3.81 5 5 0 0 1-1.61 3.79 5.71 5.71 0 0 1-4.1 1.49 5.61 5.61 0 0 1-4-1.51 5.38 5.38 0 0 1 0-7.6 6.26 6.26 0 0 1 8.15 0zm-11.65 22.76a10 10 0 0 0-2 3 8.21 8.21 0 0 0-.62 3.17 8.52 8.52 0 0 0 2.53 6.17 10.94 10.94 0 0 0 14.56.16 8.78 8.78 0 0 0 2.82-6.6 8.57 8.57 0 0 0-.56-3.19 8.07 8.07 0 0 0-1.85-2.69 8 8 0 0 1 3.32.49 3.66 3.66 0 0 1 1.57 1.69 7 7 0 0 1 .61 3.16 7.61 7.61 0 0 1-.42 2.66 4.44 4.44 0 0 1-1.24 1.84v5.37a8.37 8.37 0 0 0 5.46-5.26 14 14 0 0 0 .71-4.8q0-5.35-3.14-8-2.32-2-7.24-2h-16.65v4.85zm11.35 1.22a5 5 0 0 1 1.52 3.74 5.19 5.19 0 0 1-1.55 3.85 5.42 5.42 0 0 1-4 1.53 5.35 5.35 0 0 1-3.88-1.5 5.51 5.51 0 0 1 0-7.62 5.4 5.4 0 0 1 3.94-1.48 5.47 5.47 0 0 1 3.97 1.5zm-14-65.45a9.62 9.62 0 0 0 2.94 7.18 10.14 10.14 0 0 0 7.38 2.86 9.81 9.81 0 0 0 7.22-2.87 10 10 0 0 0 2.88-7.44 11.5 11.5 0 0 0-1-5.08 9.69 9.69 0 0 0-3.22-3.68l-1.93 4.1a6.49 6.49 0 0 1 1.91 4.69 5.68 5.68 0 0 1-1.22 3.76 5.21 5.21 0 0 1-3.29 1.81v-15.63h-.93a10.61 10.61 0 0 0-7.75 2.87 10 10 0 0 0-2.98 7.44zm7.78 5.12a6.37 6.37 0 0 1-2.52-1.79 5.83 5.83 0 0 1-1.14-3.57 5.52 5.52 0 0 1 1-3.3 4.89 4.89 0 0 1 2.64-1.9zm-5.76 10.42a6.92 6.92 0 0 1 5.07-1.69h12.83v4.82h-8.5a21.53 21.53 0 0 0-4.62.31 3.16 3.16 0 0 0-1.74 1.09 3 3 0 0 0-.6 1.91 3.59 3.59 0 0 0 1 2.54 5.28 5.28 0 0 0 2.74 1.47 22.06 22.06 0 0 0 3.94.21h7.79v4.87h-19.42V385h2a11.69 11.69 0 0 1-1.94-3 7.26 7.26 0 0 1-.55-2.75 6.66 6.66 0 0 1 2.01-4.87zM89.36 342.51a7.62 7.62 0 1 0 7.64-7.63 7.62 7.62 0 0 0-7.64 7.63zm8.7-4.67v3.65h3.85v2h-3.85v3.65h-2.14v-3.65h-3.86v-2h3.86v-3.65z"/></g></g></svg>