<svg id="Layer_1" data-name="Layer 1" xmlns="http://www.w3.org/2000/svg" viewBox="0 0 1742.07 527.11"><defs><style>.cls-1{fill:#7c7c7e;}.cls-2{fill:#45ab34;}.cls-3{fill:#77777a;}.cls-4{fill:none;stroke:#77777a;stroke-miterlimit:10;stroke-width:0.75px;}</style></defs><title>Untitled-1</title><path class="cls-1" d="M.33 81.54h25.48v36.4q15.08-20.75 34.73-31.13t43.82-10.38q42.18 0 72.19 30.4t30 73.17q0 43.69-29.73 74.17t-71.73 30.49a96.43 96.43 0 0 1-43.46-9.83q-19.82-9.83-35.82-29.3v106.53H.33zm101.93 19.52q-33.06 0-55.66 23.09T24 181.56q0 22.54 10.08 40.54a73.57 73.57 0 0 0 28.87 28.54 79.88 79.88 0 0 0 39.68 10.55 74.81 74.81 0 0 0 38.59-10.64 78 78 0 0 0 28.79-29.72 80.3 80.3 0 0 0 .09-80 76.74 76.74 0 0 0-67.84-39.77zM451.55 81.54v198h-25.11v-34q-16 19.48-36 29.3a97.22 97.22 0 0 1-43.6 9.83q-42 0-71.81-30.49t-29.7-74.12q0-42.77 30-73.17t72.27-30.4q24.38 0 44.14 10.38T426.42 118V81.6zm-101.84 19.52a76.87 76.87 0 0 0-67.91 39.82 80.23 80.23 0 0 0 .1 80 78.05 78.05 0 0 0 28.81 29.72 75.27 75.27 0 0 0 38.82 10.64 79.54 79.54 0 0 0 39.63-10.59 73.83 73.83 0 0 0 28.83-28.59q10.09-18 10.09-40.54 0-34.36-22.64-57.45t-55.73-23.01zM517.72 0a21.07 21.07 0 0 1 21 21.11 20.93 20.93 0 0 1-41.86 0 20.4 20.4 0 0 1 6.16-14.93A20 20 0 0 1 517.72 0zm-12.65 81.54h25.48v198h-25.48zM583.52 81.54H609v35.52q15.28-20.38 33.85-30.49a83.18 83.18 0 0 1 40.4-10.1q22.21 0 39.41 11.29a67.26 67.26 0 0 1 25.39 30.4q8.19 19.11 8.19 59.52v101.9h-25.47v-94.47q0-34.22-2.84-45.69-4.43-19.66-17-29.58t-32.77-9.91q-23.12 0-41.42 15.29a71.62 71.62 0 0 0-24.1 37.84q-3.65 14.74-3.64 53.88v72.63h-25.48z"/><path class="cls-2" d="M953.92 81.54h49.51v169.64q0 50.24-20.2 73.9-27.13 32-81.73 32-29.13 0-49-7.28a85.35 85.35 0 0 1-53.69-55.7h54.79a45.23 45.23 0 0 0 18.74 12.65q11.47 4.27 27.12 4.28 20 0 32.22-6.19t17.2-16q5-9.83 5-33.85-13.11 13.11-27.48 18.84t-32.58 5.73q-39.87 0-67.35-28.76t-27.44-72.74q0-47.14 29.12-75.72 26.39-25.84 63-25.85a83.77 83.77 0 0 1 32.31 6.28q15.2 6.28 30.49 20.66zm-51.52 41.32q-23.48 0-38.77 15.75t-15.29 39.59q0 24.75 15.65 40.59t39.31 15.83q23.12 0 38.14-15.47t15-40.59q0-24.75-15.11-40.23t-38.92-15.47zm244.27-46.42a105 105 0 0 1 52.69 14 102.8 102.8 0 0 1 52.33 89.92 104 104 0 0 1-13.93 52.42 100.47 100.47 0 0 1-38 38.13 104.81 104.81 0 0 1-53 13.74q-42.59 0-72.71-30.31t-30.13-73.63q0-46.42 34-77.36 29.99-26.9 68.76-26.9zm.82 46.78q-23.15 0-38.56 16.11t-15.41 41.23q0 25.85 15.23 41.86t38.56 16q23.34 0 38.84-16.2t15.5-41.68q0-25.48-15.22-41.41t-38.93-15.9zm144.8-41.69h49.69v20.3q16.89-14.25 30.62-19.82a74 74 0 0 1 28.08-5.57q29.45 0 50 20.57 17.26 17.47 17.26 51.69v130.88h-49.15v-86.72q0-35.45-3.18-47.09t-11.07-17.71q-7.9-6.09-19.52-6.09a36.57 36.57 0 0 0-25.86 10.09q-10.81 10.09-15 27.91-2.19 9.28-2.18 40.18v79.45h-49.69zm422.1 113.4h-159.63q3.45 21.12 18.48 33.58t38.31 12.47q27.85 0 47.87-19.48l41.86 19.66q-15.66 22.21-37.5 32.85t-51.87 10.65q-46.6 0-75.9-29.4t-29.31-73.63q0-45.33 29.22-75.27t73.24-29.91q46.79 0 76.09 29.94t29.3 79.09zm-49.69-39.13a49.86 49.86 0 0 0-19.41-26.94q-14.5-10.37-33.64-10.38-20.79 0-36.46 11.65-9.84 7.28-18.23 25.67zm60.9-108h5.18l-1.16 11.84 9.81-7 2.63 4.47-11 5 11 4.91-2.63 4.51-9.81-6.94 1.16 11.84h-5.18l1.24-11.84-9.81 6.94-2.63-4.51 11.2-4.91-11.2-5 2.63-4.47 9.81 7z"/><path class="cls-3" d="M11.48 446.12h5.91v17.06h9.37v5.11h-9.37v40.83h-5.91v-40.83H3.41v-5.11h8.07zM77.16 445.45h5.91v26a25.14 25.14 0 0 1 7.9-7.07 19.22 19.22 0 0 1 9.33-2.34 16.29 16.29 0 0 1 9.14 2.62 15.62 15.62 0 0 1 5.89 7q1.9 4.41 1.9 13.83v23.65h-5.91v-21.93q0-7.94-.63-10.6a12 12 0 0 0-4-6.86 11.81 11.81 0 0 0-7.58-2.3A14.57 14.57 0 0 0 89.5 471a16.61 16.61 0 0 0-5.6 8.78q-.85 3.38-.84 12.5v16.85h-5.9zM210.08 493.88l5 2.62a27.16 27.16 0 0 1-5.66 7.77 22.49 22.49 0 0 1-7.23 4.5 25.22 25.22 0 0 1-9.09 1.54q-11.24 0-17.58-7.37a24.86 24.86 0 0 1-6.36-16.66 24.56 24.56 0 0 1 5.37-15.58 22 22 0 0 1 18.22-8.7q11.75 0 18.77 8.91 5 6.29 5.07 15.71h-41.35a18.71 18.71 0 0 0 5.12 13.12 16.32 16.32 0 0 0 12.22 5.12 19.64 19.64 0 0 0 6.83-1.22 18 18 0 0 0 5.64-3.24 27.56 27.56 0 0 0 5.03-6.52zm0-12.37a19.6 19.6 0 0 0-3.45-7.56 16.31 16.31 0 0 0-6-4.56 18.32 18.32 0 0 0-7.82-1.73 16.85 16.85 0 0 0-11.65 4.35q-3.55 3.17-5.37 9.5zM356.32 462a22.76 22.76 0 0 1 17.6 7.69 24.67 24.67 0 0 1-.36 33.37q-6.71 7.2-17.24 7.2t-17.28-7.2a24.61 24.61 0 0 1-.36-33.38 22.74 22.74 0 0 1 17.64-7.68zm0 5.79a17.06 17.06 0 0 0-12.67 5.45 18.21 18.21 0 0 0-5.3 13.17 18.68 18.68 0 0 0 2.42 9.29 17.11 17.11 0 0 0 6.53 6.65 18.55 18.55 0 0 0 18.05 0 17.12 17.12 0 0 0 6.53-6.65 18.69 18.69 0 0 0 2.42-9.29 18.17 18.17 0 0 0-5.32-13.17 17.08 17.08 0 0 0-12.68-5.45zM430.48 463.18h6v6.71a21.2 21.2 0 0 1 5.7-5.93 11.25 11.25 0 0 1 6.25-2 10.79 10.79 0 0 1 5.24 1.56l-3.08 5a8.24 8.24 0 0 0-3.12-.8 8.55 8.55 0 0 0-5.7 2.43q-2.75 2.43-4.18 7.54-1.1 3.93-1.1 15.88v15.54h-6zM502.29 444.27a4.88 4.88 0 0 1 0 9.75 4.89 4.89 0 0 1-4.84-4.86 4.73 4.73 0 0 1 1.43-3.46 4.64 4.64 0 0 1 3.41-1.43zm-2.94 18.92h5.91v45.94h-5.91zM598.67 463.18h5.91v36.61q0 9.67-1.69 14.15a18.39 18.39 0 0 1-8.07 9.75 26.51 26.51 0 0 1-13.81 3.42 31.61 31.61 0 0 1-10.62-1.67 21.25 21.25 0 0 1-7.66-4.49 26.73 26.73 0 0 1-5.45-8.24h6.42a17 17 0 0 0 6.76 6.76 21.75 21.75 0 0 0 10.27 2.2 21.24 21.24 0 0 0 10.21-2.25 13.81 13.81 0 0 0 5.94-5.66q1.78-3.41 1.78-11v-2.37a22.4 22.4 0 0 1-8.16 6.48 24.22 24.22 0 0 1-22.15-.89 22.34 22.34 0 0 1-8.62-8.47 23.14 23.14 0 0 1-3-11.7 23.91 23.91 0 0 1 23.76-23.82 22 22 0 0 1 9.62 2.13 26.53 26.53 0 0 1 8.6 7zm-17.44 4.52a18.69 18.69 0 0 0-9.33 2.43 17.59 17.59 0 0 0-6.76 6.71 18.37 18.37 0 0 0-2.45 9.27 16.72 16.72 0 0 0 5.07 12.5q5.07 4.94 13.13 4.94t13.11-4.9q5-4.9 5-12.88a18.66 18.66 0 0 0-2.28-9.27 16.61 16.61 0 0 0-6.46-6.44 18 18 0 0 0-9.03-2.36zM660.81 444.27a4.88 4.88 0 0 1 0 9.75 4.89 4.89 0 0 1-4.84-4.86 4.73 4.73 0 0 1 1.43-3.46 4.64 4.64 0 0 1 3.41-1.43zm-2.94 18.92h5.91v45.94h-5.91zM717.59 463.18h5.91v8.23a24.72 24.72 0 0 1 7.85-7.07 19.3 19.3 0 0 1 9.37-2.34 16.29 16.29 0 0 1 9.14 2.62 15.6 15.6 0 0 1 5.89 7.05q1.9 4.43 1.9 13.81v23.65h-5.91v-21.92q0-7.94-.66-10.6a11.65 11.65 0 0 0-3.94-6.86 11.9 11.9 0 0 0-7.6-2.3 14.58 14.58 0 0 0-9.61 3.55 16.61 16.61 0 0 0-5.6 8.78q-.85 3.42-.84 12.5v16.85h-5.91zM857.62 463.18v45.94h-5.83v-7.9a25.35 25.35 0 0 1-8.34 6.8 23.3 23.3 0 0 1-26.77-4.79 23.72 23.72 0 0 1-6.9-17.21 23.28 23.28 0 0 1 7-17 22.72 22.72 0 0 1 16.76-7.05 21.68 21.68 0 0 1 10.24 2.41 23.31 23.31 0 0 1 8 7.22v-8.45zm-23.63 4.52a17.83 17.83 0 0 0-15.75 9.24 18.61 18.61 0 0 0 0 18.56 18.13 18.13 0 0 0 6.69 6.9 17.47 17.47 0 0 0 9 2.47 18.46 18.46 0 0 0 9.2-2.45 17.11 17.11 0 0 0 6.69-6.62 18.9 18.9 0 0 0 2.34-9.41 18.28 18.28 0 0 0-5.24-13.33A17.39 17.39 0 0 0 834 467.7zM911.55 445.45h5.91v63.68h-5.91zM1031.52 453.06v-6h34v6h-13.85v56h-6.33v-56zM1116.06 447.06h35.6v6h-29.39v19.5h29.14v6.08h-29.14v24.42h29.14v6.08h-35.35zM1203.94 509.13v-62.07h1.35l41.34 47.62v-47.62h6.12v62.12h-1.39l-41-47v47zM1302.97 497.56l5.28-3.17q5.57 10.26 12.88 10.26a12.34 12.34 0 0 0 5.87-1.46 10.31 10.31 0 0 0 4.18-3.91 10.11 10.11 0 0 0 1.44-5.19 10.53 10.53 0 0 0-2.11-6.12q-2.91-4.14-10.64-10t-9.67-8.49a15.52 15.52 0 0 1-3.29-9.5 14.42 14.42 0 0 1 1.94-7.39 13.86 13.86 0 0 1 5.47-5.26 15.77 15.77 0 0 1 7.66-1.92 16.34 16.34 0 0 1 8.21 2.17q3.82 2.18 8.09 8l-5.07 3.84q-3.51-4.65-6-6.12a10.3 10.3 0 0 0-5.38-1.48 8.53 8.53 0 0 0-6.14 2.28 7.46 7.46 0 0 0-2.39 5.62 9.56 9.56 0 0 0 .84 3.93 14.48 14.48 0 0 0 3.08 4.14q1.22 1.18 8 6.21 8.07 6 11.06 10.6a17.08 17.08 0 0 1 3 9.33 15.84 15.84 0 0 1-5.13 11.74 17.24 17.24 0 0 1-12.48 5 18.31 18.31 0 0 1-10.26-3q-4.55-3.02-8.44-10.11zM1458.54 463.18h5.91v8.45a23.72 23.72 0 0 1 8.06-7.22 21.42 21.42 0 0 1 10.17-2.41 22.69 22.69 0 0 1 16.75 7.05 23.29 23.29 0 0 1 7 17 23.73 23.73 0 0 1-6.9 17.21 23.22 23.22 0 0 1-26.77 4.8 25.39 25.39 0 0 1-8.31-6.8v24.7h-5.91zm23.65 4.52a17.37 17.37 0 0 0-12.91 5.36 18.29 18.29 0 0 0-5.24 13.33 18.92 18.92 0 0 0 2.34 9.41 17.05 17.05 0 0 0 6.7 6.62 18.54 18.54 0 0 0 9.21 2.45 17.35 17.35 0 0 0 9-2.47 18.12 18.12 0 0 0 6.68-6.9 18.63 18.63 0 0 0 0-18.56 17.8 17.8 0 0 0-15.74-9.24zM1597.64 493.88l5 2.62a27.17 27.17 0 0 1-5.66 7.77 22.49 22.49 0 0 1-7.23 4.5 25.22 25.22 0 0 1-9.09 1.54q-11.24 0-17.58-7.37a24.86 24.86 0 0 1-6.34-16.66 24.56 24.56 0 0 1 5.37-15.58 22 22 0 0 1 18.22-8.7q11.75 0 18.77 8.91 5 6.29 5.07 15.71h-41.34a18.71 18.71 0 0 0 5.12 13.12 16.32 16.32 0 0 0 12.21 5.12 19.64 19.64 0 0 0 6.83-1.22 18 18 0 0 0 5.64-3.24 27.59 27.59 0 0 0 5.01-6.52zm0-12.37a19.6 19.6 0 0 0-3.45-7.56 16.31 16.31 0 0 0-6-4.56 18.32 18.32 0 0 0-7.82-1.73 16.84 16.84 0 0 0-11.63 4.35q-3.55 3.17-5.37 9.5zM1656.68 463.18h5.91v8.23a24.72 24.72 0 0 1 7.85-7.07 19.3 19.3 0 0 1 9.38-2.34 16.29 16.29 0 0 1 9.14 2.62 15.6 15.6 0 0 1 5.89 7.05q1.9 4.43 1.9 13.81v23.65h-5.91v-21.92q0-7.94-.66-10.6a11.65 11.65 0 0 0-3.94-6.86 11.9 11.9 0 0 0-7.6-2.3 14.58 14.58 0 0 0-9.61 3.55 16.62 16.62 0 0 0-5.6 8.78q-.85 3.42-.84 12.5v16.85h-5.91z"/><path id="_Path_" data-name="&lt;Path&gt;" class="cls-4" d="M0 403.64h1714.39"/><path id="_Compound_Path_" data-name="&lt;Compound Path&gt;" class="cls-3" d="M772.1 41.77v8.29h6.89a8.66 8.66 0 0 0 4.26-.72 3.72 3.72 0 0 0 1.65-3.47 4 4 0 0 0-1.16-3.15c-.79-.66-2.29-1-4.46-1zm-4.46-4h11.74a15.31 15.31 0 0 1 5.9.82 6.63 6.63 0 0 1 2.94 2.7 8.21 8.21 0 0 1 1.13 4.34 8 8 0 0 1-.8 3.71 8.22 8.22 0 0 1-2.72 2.53 5.43 5.43 0 0 1 2.55 2.17 9.57 9.57 0 0 1 .66 4.19v3.18a6.58 6.58 0 0 0 1 3.76l.45.72h-5a24.16 24.16 0 0 1-.67-4.14l-.22-3.45a6.2 6.2 0 0 0-.61-2.7 2.74 2.74 0 0 0-1.37-1.11 11.15 11.15 0 0 0-3.52-.33h-7v11.73h-4.46zm31.19 14.24a20.89 20.89 0 0 0-2.82-10.53 21 21 0 0 0-18.13-10.6 20.92 20.92 0 0 0-10.56 2.85 20.38 20.38 0 0 0-7.76 7.76 21.32 21.32 0 0 0-2.79 10.6 20.9 20.9 0 0 0 2.79 10.51 20.66 20.66 0 0 0 7.76 7.73 21 21 0 0 0 10.56 2.82 20.29 20.29 0 0 0 10.44-2.85 21 21 0 0 0 7.71-7.71 20.72 20.72 0 0 0 2.8-10.58m3.4 0a24.35 24.35 0 0 1-12.22 21.18 23.76 23.76 0 0 1-12.2 3.3 24 24 0 0 1-12.19-3.28 24.33 24.33 0 0 1-9-8.94 23.78 23.78 0 0 1-3.25-12.21 24.43 24.43 0 0 1 24.43-24.51 24.5 24.5 0 0 1 24.42 24.39"/></svg>